#!OML:ASF F:\VICON\USERDATA\INSTALL\rory3\rory3.ASF
:FULLY-SPECIFIED
:DEGREES
351
root 5.19465 17.8601 13.8885 47.9823 -97.0435 -50.0501
lowerback 12.1288 -1.13576 -5.66604
upperback 1.20369 -2.32536 0.0348567
thorax -5.31185 -1.04638 3.61528
lowerneck -22.1853 -4.30024 -11.0226
upperneck 26.8245 -4.68362 7.15555
head 13.1463 -2.35186 3.80128
rclavicle -2.9271e-014 7.95139e-016
rhumerus -44.7928 -21.9581 -69.8494
rradius 30.9797
rwrist 6.0166
rhand -15.0817 8.97963
rfingers 7.12502
rthumb 11.0859 -20.7076
lclavicle -2.9271e-014 7.95139e-016
lhumerus -27.3262 4.82385 81.8117
lradius 37.0718
lwrist -5.65099
lhand -18.4901 26.3018
lfingers 7.12502
lthumb 7.79732 56.138
rfemur -22.545 -3.27989 14.3535
rtibia 66.2291
rfoot -8.00121 6.06224
rtoes 2.12436
lfemur 3.69668 3.61539 -26.8339
ltibia 11.9496
lfoot -10.7867 -10.5258
ltoes -2.25125
352
root 5.08814 17.845 13.8962 47.3539 -97.0616 -49.3131
lowerback 12.208 -1.07438 -5.49977
upperback 1.07707 -2.23342 -0.0526638
thorax -5.50924 -0.995457 3.42042
lowerneck -22.0602 -4.39402 -10.9725
upperneck 26.8225 -4.88708 7.24368
head 13.1439 -2.42776 3.79094
rclavicle -1.47101e-014 1.82882e-014
rhumerus -45.0187 -22.0467 -70.098
rradius 30.9215
rwrist 5.95566
rhand -14.969 9.02748
rfingers 7.12502
rthumb 11.1947 -20.6539
lclavicle -1.47101e-014 1.82882e-014
lhumerus -27.3879 3.92523 82.1025
lradius 37.2341
lwrist -5.52081
lhand -18.2111 25.7059
lfingers 7.12502
lthumb 8.06662 55.5319
rfemur -23.3583 -3.65962 14.6069
rtibia 65.1591
rfoot -8.79396 5.09489
rtoes 1.06089
lfemur 3.69513 3.62609 -26.8803
ltibia 12.478
lfoot -11.3063 -10.2329
ltoes -2.85175
353
root 4.98782 17.83 13.9019 47.2604 -96.9283 -49.0391
lowerback 12.2149 -1.11303 -5.42305
upperback 1.0141 -2.26937 0.0288052
thorax -5.57574 -1.00952 3.47048
lowerneck -22.1278 -4.42346 -11.0521
upperneck 26.81 -4.90346 7.29015
head 13.1587 -2.43461 3.81965
rclavicle 1.09332e-014 1.15295e-014
rhumerus -44.8661 -22.0213 -70.2945
rradius 30.7188
rwrist 6.08201
rhand -15.0576 9.05348
rfingers 7.12502
rthumb 11.1092 -20.6325
lclavicle 1.09332e-014 1.15295e-014
lhumerus -27.3143 3.5724 82.468
lradius 37.3945
lwrist -5.59811
lhand -18.0544 25.4362
lfingers 7.12502
lthumb 8.21788 55.2563
rfemur -24.1801 -4.09809 14.8655
rtibia 63.9549
rfoot -9.31232 4.42759
rtoes 3.53065
lfemur 3.671 3.8213 -26.792
ltibia 12.8401
lfoot -11.7603 -10.1769
ltoes -4.64426
354
root 4.89027 17.8087 13.9041 47.7459 -96.9073 -49.3384
lowerback 12.185 -1.14291 -5.64845
upperback 0.98137 -2.32834 0.174408
thorax -5.57298 -1.0302 3.76035
lowerneck -22.2347 -4.45185 -11.118
upperneck 26.7599 -4.87567 7.22052
head 13.1573 -2.43358 3.80651
rclavicle 3.762e-014 -3.97569e-015
rhumerus -44.5732 -21.846 -70.4676
rradius 30.5566
rwrist 5.97529
rhand -15.1143 9.05157
rfingers 7.12502
rthumb 11.0545 -20.6373
lclavicle 3.762e-014 -3.97569e-015
lhumerus -27.1762 3.53388 82.8778
lradius 37.5372
lwrist -5.75868
lhand -18.0601 25.8042
lfingers 7.12502
lthumb 8.21233 55.6246
rfemur -24.9767 -4.42843 15.0039
rtibia 62.616
rfoot -9.61217 3.77821
rtoes 5.8269
lfemur 3.66692 4.07601 -26.8536
ltibia 13.0598
lfoot -12.155 -10.0431
ltoes -6.93141
355
root 4.78712 17.777 13.9064 47.3761 -96.9937 -48.8146
lowerback 12.1522 -1.14962 -5.68472
upperback 0.92811 -2.34437 0.114728
thorax -5.61068 -1.03498 3.72021
lowerneck -22.3144 -4.5064 -11.0616
upperneck 26.7634 -5.016 7.37326
head 13.1937 -2.46724 3.83229
rclavicle -3.26504e-014 -8.74653e-015
rhumerus -44.4693 -21.8689 -70.8602
rradius 30.4637
rwrist 5.78388
rhand -15.2081 8.93253
rfingers 7.12502
rthumb 10.9641 -20.7612
lclavicle -3.26504e-014 -8.74653e-015
lhumerus -27.166 3.08013 83.053
lradius 37.7146
lwrist -5.68799
lhand -18.3738 26.2937
lfingers 7.12502
lthumb 7.90955 56.1257
rfemur -25.7104 -4.68475 15.1849
rtibia 61.1122
rfoot -10.0852 2.98466
rtoes 5.68484
lfemur 3.74755 4.65593 -26.9576
ltibia 13.1789
lfoot -12.9994 -9.57854
ltoes -12.1002
356
root 4.67751 17.7661 13.9119 46.3785 -97.0582 -47.7014
lowerback 12.135 -1.11414 -5.56418
upperback 0.888376 -2.28346 0.0616321
thorax -5.65634 -1.00587 3.58668
lowerneck -22.2776 -4.55482 -11.1473
upperneck 26.6748 -5.12647 7.60589
head 13.1724 -2.49217 3.91772
rclavicle 2.79789e-014 8.74653e-015
rhumerus -44.4107 -21.9495 -71.1479
rradius 30.2768
rwrist 5.85441
rhand -15.6401 9.18405
rfingers 7.12502
rthumb 10.5473 -20.5313
lclavicle 2.79789e-014 8.74653e-015
lhumerus -27.1264 2.65386 83.2557
lradius 37.8796
lwrist -5.66144
lhand -18.5909 26.397
lfingers 7.12502
lthumb 7.70003 56.2368
rfemur -26.2561 -4.76865 15.4388
rtibia 59.3712
rfoot -10.6603 2.08783
rtoes 5.61277
lfemur 4.08323 4.86521 -26.9777
ltibia 13.0979
lfoot -13.4304 -9.32358
ltoes -14.0011
357
root 4.56375 17.7813 13.9176 45.5782 -97.1247 -46.7868
lowerback 11.9958 -1.05062 -5.66442
upperback 0.947918 -2.19575 0.166032
thorax -5.51637 -0.965341 3.73313
lowerneck -22.3107 -4.57937 -11.1598
upperneck 26.5483 -5.12322 7.55928
head 13.1261 -2.49277 3.89836
rclavicle -1.25731e-014 1.19271e-015
rhumerus -44.076 -21.8527 -71.3365
rradius 30.0183
rwrist 5.94883
rhand -15.7368 9.15155
rfingers 7.12502
rthumb 10.454 -20.5685
lclavicle -1.25731e-014 1.19271e-015
lhumerus -26.9366 2.59623 83.5959
lradius 37.9784
lwrist -5.77373
lhand -18.4454 26.0102
lfingers 7.12502
lthumb 7.8405 55.8449
rfemur -26.6094 -4.82503 15.6693
rtibia 57.3859
rfoot -11.1081 1.41034
rtoes 6.34901
lfemur 4.62791 4.05768 -27.058
ltibia 12.7986
lfoot -12.7849 -9.16633
ltoes -9.06885
358
root 4.45152 17.7898 13.9212 44.8904 -97.2808 -46.0209
lowerback 11.8264 -1.02668 -6.033
upperback 1.07263 -2.18969 0.33396
thorax -5.27021 -0.964487 4.10867
lowerneck -22.493 -4.56293 -11.1068
upperneck 26.4731 -5.0411 7.42653
head 13.1173 -2.461 3.84895
rclavicle 1.14301e-015 -1.59028e-015
rhumerus -43.5325 -21.5696 -71.5973
rradius 29.805
rwrist 6.03017
rhand -15.4313 9.03265
rfingers 7.12502
rthumb 10.7487 -20.6723
lclavicle 1.14301e-015 -1.59028e-015
lhumerus -26.7159 2.90792 83.9045
lradius 38.0523
lwrist -5.835
lhand -18.3716 25.766
lfingers 7.12502
lthumb 7.91169 55.598
rfemur -26.9111 -4.93121 15.7968
rtibia 55.2521
rfoot -11.3584 0.950379
rtoes 7.64372
lfemur 5.12882 3.43344 -27.2329
ltibia 12.5541
lfoot -12.3309 -8.66819
ltoes -6.25045
359
root 4.34257 17.7829 13.9215 45.1584 -97.4345 -46.2289
lowerback 11.851 -0.990861 -6.33184
upperback 1.08924 -2.18081 0.379099
thorax -5.25472 -0.954385 4.32448
lowerneck -22.6308 -4.58805 -11.1749
upperneck 26.504 -5.05943 7.50397
head 13.1649 -2.46278 3.88873
rclavicle -1.78409e-014 5.96354e-015
rhumerus -43.2759 -21.3636 -71.8723
rradius 29.6963
rwrist 6.21694
rhand -15.2522 9.04181
rfingers 7.12502
rthumb 10.9215 -20.6541
lclavicle -1.78409e-014 5.96354e-015
lhumerus -26.6424 2.82289 84.1902
lradius 38.1749
lwrist -5.63336
lhand -18.6662 25.8979
lfingers 7.12502
lthumb 7.62731 55.7404
rfemur -27.183 -5.16346 15.8404
rtibia 53.0012
rfoot -11.6446 0.155275
rtoes 6.9108
lfemur 5.56496 3.3542 -27.4475
ltibia 12.3094
lfoot -12.1706 -8.85108
ltoes -5.77209
